<svg width="42" height="27" viewBox="0 0 42 27" fill="none" xmlns="http://www.w3.org/2000/svg">
<path d="M38.9244 1H3.0756C2.52532 1.00124 1.99831 1.22011 1.60918 1.60919C1.22012 1.99826 1.00124 2.52531 1 3.07563V24.1154C1.00124 24.6657 1.22011 25.1927 1.60918 25.5818C1.99825 25.9709 2.52528 26.1898 3.0756 26.191H38.9244C39.4747 26.1898 40.0017 25.9709 40.3908 25.5818C40.7799 25.1927 40.9988 24.6657 41 24.1154V3.07563C40.9988 2.52534 40.7799 1.99832 40.3908 1.60919C40.0018 1.22012 39.4747 1.00124 38.9244 1ZM1.8891 7.73335H40.1109V13.151H1.8891V7.73335ZM3.07583 1.88881H38.9246C39.239 1.89005 39.54 2.0153 39.7626 2.23758C39.9849 2.45987 40.1102 2.76121 40.1114 3.0756V6.8445H1.88962V3.0756C1.89086 2.76124 2.01611 2.4599 2.23838 2.23758C2.46098 2.0153 2.762 1.89005 3.07639 1.88881H3.07583ZM38.9246 25.3024H3.07583C2.76148 25.3011 2.46045 25.1759 2.23783 24.9536C2.01554 24.7313 1.8903 24.43 1.88906 24.1156V14.0402H40.1109V24.1156C40.1096 24.4299 39.9844 24.7313 39.7621 24.9536C39.5395 25.1759 39.2385 25.3011 38.9241 25.3024H38.9246Z" fill="#D9BBFF" stroke="#D9BBFF" stroke-width="1.5"/>
<path d="M34.4839 16.6706H29.302C28.9864 16.6715 28.6841 16.7974 28.4609 17.0206C28.2376 17.2438 28.1118 17.5461 28.1108 17.8617V21.1505C28.1108 21.4664 28.2361 21.7693 28.4596 21.9928C28.6828 22.216 28.986 22.3415 29.3019 22.3415H34.4838C34.7982 22.3394 35.0989 22.2129 35.3206 21.9897C35.5419 21.7665 35.6662 21.4648 35.6662 21.1505V17.8617C35.665 17.5477 35.5404 17.2466 35.3193 17.0237C35.098 16.8008 34.7979 16.674 34.4839 16.6706ZM34.7775 21.1504C34.775 21.3162 34.6411 21.4502 34.4752 21.4526H29.3019C29.2216 21.4526 29.1447 21.4207 29.088 21.3643C29.0316 21.3076 28.9997 21.2307 28.9997 21.1504V17.8616C28.9997 17.6945 29.1348 17.5594 29.3019 17.5594H34.4838C34.65 17.5615 34.7839 17.6955 34.7861 17.8616L34.7775 21.1504Z" fill="#D9BBFF" stroke="#D9BBFF" stroke-width="1.5"/>
</svg>
