<svg width="44" height="39" viewBox="0 0 44 39" fill="none" xmlns="http://www.w3.org/2000/svg">
<path d="M15.2075 1.00042C11.3267 1.00042 7.84057 1.72409 5.27543 2.97371C2.77588 4.15761 1.0656 5.86792 1 7.9068V7.97243V8.10412V13.7609V13.8265V19.8779V19.9435V25.5347C1 27.6396 2.71028 29.4156 5.27543 30.6652C7.84057 31.9148 11.3267 32.6385 15.2075 32.6385C16.6544 32.6385 18.0361 32.5068 19.3513 32.3094C21.7853 35.3354 25.5344 37.3086 29.6781 37.3086C36.9794 37.3086 42.8986 31.3888 42.8986 24.0215C42.8986 16.7201 36.979 10.7345 29.6781 10.7345H29.349V8.10327V7.97158V7.90595V7.84032C29.2173 5.86704 27.5732 4.15684 25.0736 2.90723C22.5089 1.72332 19.0884 1 15.2076 1L15.2075 1.00042ZM15.2075 2.05266C18.891 2.05266 22.2455 2.77633 24.6134 3.89418C26.9157 5.0125 28.2968 6.45935 28.3625 7.9724V8.03803V8.10365C28.3625 9.1559 27.7049 10.2742 26.455 11.1952C24.8765 11.5899 23.3634 12.3136 22.1139 13.2341C20.0751 13.8261 17.7729 14.1551 15.2734 14.1551C11.5242 14.1551 8.16937 13.4315 5.80149 12.3136C3.56537 11.2614 2.24971 9.87963 2.11806 8.43276V8.16981V8.03811C2.18368 6.59124 3.49931 5.1439 5.8672 4.0256C8.16983 2.77644 11.5243 2.05277 15.2078 2.05277L15.2075 2.05266ZM2.05326 10.801C2.77691 11.722 3.9608 12.5769 5.27646 13.235C7.8416 14.4846 11.3278 15.2083 15.2086 15.2083C16.9845 15.2083 18.6947 15.0766 20.2733 14.748C18.892 16.1949 17.7737 17.9052 17.1817 19.8128C16.5241 19.8784 15.8661 19.8784 15.2085 19.8784C11.4593 19.8784 8.17051 19.1547 5.73657 18.0369C3.36868 16.9186 2.05314 15.4056 2.05314 13.893V13.8274L2.05326 10.801ZM29.7447 11.7876C36.5197 11.7876 41.9138 17.2471 41.9138 24.0221C41.9138 30.797 36.4544 36.2565 29.7447 36.2565C23.0358 36.2565 17.5755 30.797 17.5755 24.0221C17.5755 17.3131 22.9693 11.7876 29.7447 11.7876ZM2.05326 16.5895C2.77691 17.5105 3.9608 18.3654 5.27646 19.0235C7.8416 20.2731 11.3278 20.9968 15.2086 20.9968C15.8005 20.9968 16.3269 20.9968 16.8528 20.9312C16.5898 21.9178 16.4582 23.0361 16.4582 24.0884C16.4582 24.7459 16.5238 25.404 16.5898 26.0616C16.1296 26.1273 15.6689 26.1273 15.143 26.1273C11.3939 26.1273 8.10505 25.4036 5.67111 24.2857C3.30322 23.1674 1.98768 21.6545 1.98768 20.0759V20.0102L1.98723 16.5896L2.05326 16.5895ZM2.05326 22.7065C2.77691 23.6275 3.9608 24.4824 5.27646 25.1405C7.8416 26.3901 11.3278 27.1138 15.2086 27.1138C15.7349 27.1138 16.2608 27.1138 16.8528 27.0482C17.2474 28.6267 17.8394 30.0741 18.7603 31.3893C17.642 31.5209 16.5242 31.6522 15.2742 31.6522C11.525 31.6522 8.17017 30.9285 5.80228 29.8107C3.4344 28.6924 2.11886 27.1795 2.11886 25.6669L2.05326 22.7065Z" fill="#D9BBFF" stroke="#D9BBFF" stroke-width="1.5"/>
</svg>
