<svg width="86" height="33" viewBox="0 0 86 33" fill="none" xmlns="http://www.w3.org/2000/svg">
<path d="M16.6309 32L6.41006 19.4855V32H0.776527V3.91281H6.41006V16.5078L16.6309 3.91281H23.4314L11.8424 17.8357L23.7533 32H16.6309ZM55.9763 7.0515C54.9838 7.0515 54.1522 6.74299 53.4815 6.12599C52.8377 5.48215 52.5157 4.69078 52.5157 3.75186C52.5157 2.81293 52.8377 2.03497 53.4815 1.41796C54.1522 0.77413 54.9838 0.452214 55.9763 0.452214C56.9689 0.452214 57.7871 0.77413 58.431 1.41796C59.1016 2.03497 59.4369 2.81293 59.4369 3.75186C59.4369 4.69078 59.1016 5.48215 58.431 6.12599C57.7871 6.74299 56.9689 7.0515 55.9763 7.0515ZM58.7529 9.7073V32H53.1193V9.7073H58.7529ZM76.6724 9.38539C79.3282 9.38539 81.4743 10.2304 83.1107 11.9205C84.7471 13.5837 85.5653 15.9176 85.5653 18.9222V32H79.9318V19.6867C79.9318 17.9162 79.4891 16.5614 78.6038 15.6225C77.7186 14.6568 76.5114 14.1739 74.9823 14.1739C73.4264 14.1739 72.1924 14.6568 71.2803 15.6225C70.395 16.5614 69.9523 17.9162 69.9523 19.6867V32H64.3188V9.7073H69.9523V12.4838C70.7035 11.5181 71.6558 10.7669 72.8094 10.2304C73.9897 9.66706 75.2774 9.38539 76.6724 9.38539Z" fill="white"/>
<path d="M37.3577 32.3622C35.2116 32.3622 33.2801 31.8927 31.5632 30.9538C29.8463 29.988 28.4916 28.6333 27.499 26.8896C26.5333 25.1459 26.0504 23.1339 26.0504 20.8537C26.0504 18.5734 26.5467 16.5614 27.5393 14.8177C28.5587 13.074 29.9402 11.7327 31.6839 10.7938C33.4277 9.82802 35.3726 9.34515 37.5187 9.34515C39.6648 9.34515 41.6097 9.82802 43.3534 10.7938C45.0971 11.7327 46.4653 13.074 47.4578 14.8177C48.4772 16.5614 48.9869 18.5734 48.9869 20.8537C48.9869 23.1339 48.4638 25.1459 47.4176 26.8896C46.3982 28.6333 45.0032 29.988 43.2327 30.9538C41.489 31.8927 39.5306 32.3622 37.3577 32.3622ZM37.3577 27.4529C38.3771 27.4529 39.3294 27.2115 40.2147 26.7286C41.1268 26.2189 41.8511 25.4678 42.3877 24.4752C42.9242 23.4826 43.1924 22.2754 43.1924 20.8537C43.1924 18.7344 42.6291 17.1114 41.5024 15.9847C40.4025 14.8311 39.0478 14.2544 37.4382 14.2544C35.8286 14.2544 34.4739 14.8311 33.374 15.9847C32.3009 17.1114 31.7644 18.7344 31.7644 20.8537C31.7644 22.9729 32.2875 24.6093 33.3338 25.7629C34.4068 26.8896 35.7481 27.4529 37.3577 27.4529Z" fill="#BC8AFC"/>
</svg>
