<svg width="40" height="33" viewBox="0 0 40 33" fill="none" xmlns="http://www.w3.org/2000/svg">
<path d="M1.72828 1.72957C1.45624 1.76385 1.25534 2.00051 1.26603 2.27476V30.8118C1.26603 31.1037 1.50269 31.3404 1.79464 31.3404H37.7296C37.8712 31.3422 38.0076 31.2877 38.1082 31.1882C38.2092 31.089 38.2656 30.9533 38.2656 30.8118C38.2656 30.6702 38.2092 30.535 38.1082 30.4354C38.0076 30.3363 37.8712 30.2813 37.7296 30.2835H2.3231V2.27498C2.32936 2.11979 2.2667 1.96976 2.15205 1.86469C2.03779 1.75963 1.88259 1.71024 1.72851 1.72978L1.72828 1.72957ZM29.175 9.67313C28.883 9.70041 28.6688 9.95918 28.6961 10.2511C28.7234 10.5431 28.9822 10.7576 29.2741 10.73H34.2944L23.461 20.5726L15.8811 14.0166C15.678 13.8481 15.3823 13.8551 15.1873 14.0328L5.67511 22.4884C5.55605 22.5761 5.47901 22.7096 5.46315 22.8566C5.44693 23.0037 5.49338 23.1508 5.5907 23.2621C5.68801 23.3731 5.82772 23.4387 5.97554 23.4424C6.12336 23.4461 6.26601 23.3875 6.36849 23.2809L15.5339 15.1229L23.1138 21.6958C23.3195 21.8739 23.627 21.8665 23.8242 21.6792L35.0869 11.4403V16.5431C35.0851 16.6847 35.14 16.8211 35.2391 16.9217C35.3383 17.0223 35.474 17.0791 35.6155 17.0791C35.7571 17.0791 35.8927 17.0224 35.9919 16.9217C36.091 16.8211 36.146 16.6847 36.1441 16.5431V10.2017C36.1441 9.90971 35.9075 9.67305 35.6155 9.67305H29.2741C29.241 9.67011 29.2078 9.67018 29.175 9.67313Z" fill="#D9BBFF" stroke="#D9BBFF" stroke-width="2"/>
</svg>
