<svg width="44" height="48" viewBox="0 0 44 48" fill="none" xmlns="http://www.w3.org/2000/svg">
<path d="M22.4292 1.62179C22.149 1.62179 21.9219 1.84892 21.9221 2.12883L21.9222 6.18623C21.9222 6.46639 22.1493 6.69352 22.4292 6.69328C22.7094 6.69328 22.9365 6.46615 22.9362 6.18623L22.9362 2.12884C22.9362 1.84868 22.7091 1.62154 22.4292 1.62179ZM8.08666 7.56485C7.95659 7.56485 7.82126 7.60862 7.72196 7.70743C7.52384 7.90554 7.52385 8.23824 7.72196 8.43635L10.5907 11.305C10.7888 11.5032 11.1217 11.5029 11.3196 11.305C11.5174 11.1072 11.5174 10.774 11.3196 10.5761L8.45088 7.70743C8.35182 7.60837 8.21624 7.56485 8.08641 7.5646L8.08666 7.56485ZM36.7728 7.56505C36.6432 7.56505 36.5074 7.60882 36.4081 7.70763L33.5394 10.5763C33.3413 10.7744 33.3416 11.1073 33.5394 11.3052C33.7375 11.5033 34.0702 11.5033 34.2683 11.3052L37.137 8.43656C37.3351 8.23844 37.3351 7.90575 37.137 7.70763C37.0379 7.60857 36.9023 7.56505 36.7723 7.56505L36.7728 7.56505ZM22.4298 9.73588C15.9825 9.73583 9.75123 14.743 9.75128 21.8281C9.75131 26.3577 11.4816 29.1606 13.1431 31.5115C14.8043 33.8621 16.3444 35.7414 16.3445 38.6432L16.3448 44.729C16.3448 46.1724 17.5377 47.2647 18.8805 47.2648L25.9807 47.2648C27.3235 47.2648 28.5165 46.1725 28.5165 44.7291L28.5164 38.6435C28.5164 35.7419 30.0565 33.8625 31.7177 31.5119C33.3791 29.161 35.1094 26.3581 35.1094 21.8285C35.1093 14.7434 28.878 9.73617 22.4307 9.73613L22.4298 9.73588ZM22.4298 10.75C28.3522 10.75 34.0943 15.3395 34.0941 21.828C34.0942 26.1045 32.528 28.6111 30.8929 30.9247C29.344 33.117 27.6875 35.1526 27.5172 38.1356L17.3428 38.1355C17.1725 35.1525 15.5163 33.1166 13.9671 30.9246C12.3318 28.6105 10.7657 26.1042 10.7656 21.8278C10.7656 15.339 16.5075 10.7498 22.4298 10.75ZM21.3522 13.349C16.815 13.8783 13.3014 17.7402 13.3014 22.4139C13.3014 23.3474 13.4373 24.2442 13.6977 25.0925C13.7765 25.3498 14.0901 25.5199 14.3475 25.4412C14.6047 25.3621 14.759 25.0487 14.6802 24.7913C14.4486 24.0368 14.3158 23.2446 14.3158 22.4142C14.3158 18.2483 17.4448 14.818 21.4793 14.3471C21.7447 14.3264 21.9756 14.074 21.9545 13.8083C21.886 13.3961 21.6731 13.3283 21.3524 13.3488L21.3522 13.349ZM2.14418 21.9073C1.86401 21.9073 1.63688 22.1344 1.63713 22.4143C1.63714 22.6945 1.86427 22.9216 2.14418 22.9214L6.20158 22.9214C6.48174 22.9214 6.70888 22.6943 6.70863 22.4144C6.70862 22.1342 6.48149 21.9071 6.20157 21.9073L2.14418 21.9073ZM38.6595 21.9075C38.3793 21.9075 38.1522 22.1347 38.1524 22.4146C38.1524 22.6947 38.3796 22.9219 38.6595 22.9216L42.7169 22.9217C42.997 22.9217 43.2242 22.6945 43.2239 22.4146C43.2239 22.1345 42.9968 21.9073 42.7166 21.9073L38.6592 21.9073L38.6595 21.9075ZM17.3589 39.1507L27.5018 39.1508L27.5018 42.1936L17.3589 42.1935L17.3589 39.1507ZM17.3589 43.2081L27.5018 43.2082L27.5018 44.7296C27.5018 45.6171 26.7779 46.2509 25.9804 46.2509L18.8802 46.2509C18.0827 46.2509 17.3588 45.617 17.3588 44.7295L17.3589 43.2081Z" fill="#D9BBFF" stroke="#D9BBFF" stroke-width="1.4"/>
</svg>
